<svg width="44" height="44" viewBox="0 0 44 44" fill="none" xmlns="http://www.w3.org/2000/svg">
<path d="M44 22C44 34.1503 34.1503 44 22 44C9.84974 44 0 34.1503 0 22C0 9.84974 9.84974 0 22 0C34.1503 0 44 9.84974 44 22Z" fill="#CF4F5E"/>
<line x1="22" y1="11" x2="22" y2="28" stroke="white" stroke-width="4"/>
<line x1="22" y1="11" x2="22" y2="28" stroke="white" stroke-width="4"/>
<line x1="22" y1="11" x2="22" y2="28" stroke="white" stroke-width="4"/>
<line x1="22" y1="11" x2="22" y2="28" stroke="white" stroke-width="4"/>
<line x1="22" y1="30" x2="22" y2="34" stroke="white" stroke-width="4"/>
<line x1="22" y1="30" x2="22" y2="34" stroke="white" stroke-width="4"/>
<line x1="22" y1="30" x2="22" y2="34" stroke="white" stroke-width="4"/>
<line x1="22" y1="30" x2="22" y2="34" stroke="white" stroke-width="4"/>
</svg>
