<svg width="24" height="47" viewBox="0 0 24 47" fill="none" xmlns="http://www.w3.org/2000/svg">
<path d="M23.1358 20.862C22.6608 20.101 21.8288 19.63 20.9318 19.63H14.5758L21.2828 3.598C21.6178 2.796 21.5308 1.881 21.0488 1.158C20.5658 0.435 19.7558 0 18.8868 0H10.4428C9.2928 0 8.2798 0.761 7.9528 1.863L0.669795 26.428C0.436795 27.214 0.587795 28.055 1.0788 28.712C1.5688 29.369 2.3398 29.747 3.1598 29.747H9.9668L8.77779 43.853C8.69479 44.84 9.3258 45.751 10.2808 46.017C11.2358 46.281 12.2428 45.83 12.6798 44.941L23.2618 23.381C23.6578 22.578 23.6088 21.623 23.1358 20.862Z" fill="#545454"/>
</svg>
