<svg width="37" height="42" viewBox="0 0 41 46" fill="none" stroke="#545454" xmlns="http://www.w3.org/2000/svg">
<path d="M8 44C11.3137 44 14 41.3137 14 38C14 34.6863 11.3137 32 8 32C4.68629 32 2 34.6863 2 38C2 41.3137 4.68629 44 8 44Z"  stroke-width="3" stroke-linecap="round" stroke-linejoin="round"/>
<path d="M33.5 14C36.5376 14 39 11.3137 39 8C39 4.68629 36.5376 2 33.5 2C30.4624 2 28 4.68629 28 8C28 11.3137 30.4624 14 33.5 14Z"  stroke-width="3" stroke-linecap="round" stroke-linejoin="round"/>
<path d="M8 14C11.3137 14 14 11.3137 14 8C14 4.68629 11.3137 2 8 2C4.68629 2 2 4.68629 2 8C2 11.3137 4.68629 14 8 14Z" stroke-width="3" stroke-linecap="round" stroke-linejoin="round"/>
<path d="M8 32V30.377C8.00003 29.0858 8.52681 27.8474 9.46447 26.9343C10.4021 26.0213 11.6739 25.5083 12.9999 25.5083L28.0001 25.508C29.3261 25.508 30.5979 24.9951 31.5355 24.082C32.4732 23.169 33 21.9306 33 20.6394V14.5"  stroke-width="3" stroke-linecap="round" stroke-linejoin="round"/>
<path d="M8 14L8 32"  stroke-width="3" stroke-linecap="round" stroke-linejoin="round"/>
</svg>
