<svg width="40" height="40" viewBox="0 0 40 40" fill="none" xmlns="http://www.w3.org/2000/svg">
<path d="M20.0964 26.9508L12.2841 34.7631C11.3382 35.676 10.075 36.1861 8.76049 36.1861C7.44598 36.1861 6.18277 35.676 5.23691 34.7631C4.77302 34.301 4.40493 33.7519 4.15377 33.1472C3.90261 32.5426 3.77332 31.8943 3.77332 31.2395C3.77332 30.5848 3.90261 29.9364 4.15377 29.3318C4.40493 28.7271 4.77302 28.178 5.23691 27.7159L13.0492 19.9036C13.4283 19.5245 13.6413 19.0103 13.6413 18.4741C13.6413 17.9379 13.4283 17.4236 13.0492 17.0445C12.6701 16.6654 12.1558 16.4524 11.6196 16.4524C11.0834 16.4524 10.5692 16.6654 10.1901 17.0445L2.37777 24.8769C0.803954 26.59 -0.0472145 28.8448 0.00202301 31.1706C0.0512605 33.4963 0.997097 35.7131 2.64201 37.358C4.28692 39.0029 6.50372 39.9487 8.82945 39.998C11.1552 40.0472 13.41 39.1961 15.1231 37.6222L22.9555 29.8099C23.3346 29.4308 23.5476 28.9166 23.5476 28.3804C23.5476 27.8442 23.3346 27.33 22.9555 26.9508C22.5764 26.5717 22.0621 26.3587 21.5259 26.3587C20.9897 26.3587 20.4755 26.5717 20.0964 26.9508ZM37.372 2.62801C35.6782 0.944761 33.3873 0 30.9993 0C28.6114 0 26.3205 0.944761 24.6267 2.62801L16.7943 10.4403C16.6065 10.628 16.4576 10.8509 16.356 11.0962C16.2544 11.3415 16.2021 11.6044 16.2021 11.8699C16.2021 12.1354 16.2544 12.3983 16.356 12.6435C16.4576 12.8888 16.6065 13.1117 16.7943 13.2994C16.982 13.4872 17.2049 13.6361 17.4502 13.7377C17.6954 13.8393 17.9583 13.8916 18.2238 13.8916C18.4893 13.8916 18.7522 13.8393 18.9975 13.7377C19.2428 13.6361 19.4657 13.4872 19.6534 13.2994L27.4657 5.48715C28.4115 4.57429 29.6748 4.06414 30.9893 4.06414C32.3038 4.06414 33.567 4.57429 34.5128 5.48715C34.9767 5.94921 35.3448 6.49834 35.596 7.103C35.8472 7.70767 35.9764 8.35598 35.9764 9.01073C35.9764 9.66549 35.8472 10.3138 35.596 10.9185C35.3448 11.5231 34.9767 12.0722 34.5128 12.5343L26.7006 20.3466C26.5118 20.5338 26.3621 20.7565 26.2598 21.0018C26.1576 21.2472 26.105 21.5104 26.105 21.7762C26.105 22.042 26.1576 22.3051 26.2598 22.5505C26.3621 22.7959 26.5118 23.0186 26.7006 23.2057C26.8877 23.3945 27.1104 23.5443 27.3558 23.6465C27.6012 23.7487 27.8643 23.8013 28.1301 23.8013C28.3959 23.8013 28.6591 23.7487 28.9045 23.6465C29.1498 23.5443 29.3725 23.3945 29.5597 23.2057L37.372 15.3733C39.0552 13.6795 40 11.3886 40 9.00066C40 6.61273 39.0552 4.32179 37.372 2.62801ZM13.4922 26.5078C13.6803 26.6945 13.9034 26.8421 14.1487 26.9423C14.3941 27.0425 14.6567 27.0933 14.9217 27.0917C15.1867 27.0933 15.4494 27.0425 15.6947 26.9423C15.94 26.8421 16.1632 26.6945 16.3513 26.5078L26.2576 16.6015C26.6367 16.2224 26.8497 15.7082 26.8497 15.172C26.8497 14.6358 26.6367 14.1215 26.2576 13.7424C25.8785 13.3633 25.3642 13.1503 24.828 13.1503C24.2918 13.1503 23.7776 13.3633 23.3985 13.7424L13.4922 23.6487C13.3034 23.8359 13.1537 24.0586 13.0514 24.3039C12.9492 24.5493 12.8966 24.8125 12.8966 25.0783C12.8966 25.3441 12.9492 25.6072 13.0514 25.8526C13.1537 26.098 13.3034 26.3207 13.4922 26.5078Z" fill="#545454"/>
</svg>
