<svg width="512" height="506" viewBox="0 0 512 506" fill="none" xmlns="http://www.w3.org/2000/svg">
<path fill-rule="evenodd" clip-rule="evenodd" d="M39.4136 1.24432C22.4486 5.36732 7.8026 20.0403 3.8926 36.8293C1.0846 48.8893 3.1906 62.9173 9.3656 73.2763C10.7036 75.5203 51.1966 116.725 99.3506 164.843L186.904 252.33L98.0976 341.343C2.4846 437.18 5.1456 434.232 1.4556 448.398C-1.5164 459.81 0.079597 471.738 6.0886 483.012C15.5496 500.762 37.6646 509.374 61.0556 504.416C74.9936 501.461 71.3636 504.722 166.433 409.763C214.837 361.414 254.881 321.856 255.42 321.856C255.958 321.856 296.005 361.404 344.412 409.741C426.029 491.24 432.897 497.847 438.925 500.657C459.6 510.299 484.637 506.37 498.947 491.239C512.399 477.016 515.512 455.265 506.722 436.921C503.813 430.85 496.84 423.65 414.001 341.184L324.425 252.012L411.557 164.684C465.831 110.288 499.646 75.6593 501.228 72.8563C505.655 65.0123 507.199 57.6953 506.693 46.9693C506.149 35.4643 503.745 28.4753 497.448 20.0993C485.156 3.74632 462.843 -3.13268 443.425 3.44332C432.359 7.19032 427.301 11.8733 340.479 98.7513L255.533 183.753L167.976 96.5543C73.9736 2.93732 76.2646 5.00332 62.3826 1.38732C55.4856 -0.40868 46.4476 -0.465681 39.4136 1.24432Z" fill="white"/>
</svg>
