<svg width="18" height="18" viewBox="0 0 18 18" fill="none" xmlns="http://www.w3.org/2000/svg">
<path d="M16.9884 9.4296C16.5546 8.7762 15.9804 8.2884 15.2712 7.9662C15.2838 7.7988 15.2892 7.671 15.2892 7.581C15.2892 6.3156 14.8302 5.2356 13.9104 4.341C12.9906 3.4482 11.8818 3 10.584 3C9.6156 3 8.739 3.2628 7.9524 3.7884C7.1658 4.314 6.5916 4.9998 6.2298 5.8476C5.8014 5.4768 5.292 5.2932 4.7052 5.2932C4.0554 5.2932 3.501 5.5164 3.042 5.9646C2.583 6.4128 2.3526 6.9528 2.3526 7.5846C2.3526 8.0328 2.4786 8.4432 2.7288 8.8194C1.9386 8.9976 1.287 9.399 0.7722 10.0236C0.2574 10.6446 0 11.3592 0 12.1638C0 13.1124 0.3456 13.9224 1.035 14.5938C1.7226 15.2652 2.5542 15.6 3.528 15.6H13.5234C14.6574 15.6 15.6258 15.2076 16.4304 14.4228C17.235 13.638 17.6382 12.6948 17.6382 11.5914C17.64 10.803 17.4222 10.083 16.9884 9.4296ZM12.1608 8.8158L8.5968 12.3798C8.2278 12.7488 7.6302 12.7488 7.2612 12.3798L5.4792 10.5978C5.1102 10.2288 5.1102 9.6312 5.4792 9.2622C5.8482 8.8932 6.4458 8.8932 6.8148 9.2622L7.929 10.3764L10.8252 7.4802C11.1942 7.1112 11.7918 7.1112 12.1608 7.4802C12.5298 7.8492 12.5298 8.4468 12.1608 8.8158Z" fill="#7ECA9C"/>
</svg>
