<svg width="44" height="44" viewBox="0 0 44 44" fill="none" xmlns="http://www.w3.org/2000/svg">
<path d="M22 0C17.6488 0 13.3953 1.29028 9.77746 3.70767C6.15958 6.12506 3.33979 9.56099 1.67466 13.581C0.00953221 17.6009 -0.426141 22.0244 0.422734 26.292C1.27161 30.5596 3.36691 34.4796 6.44366 37.5564C9.52042 40.6331 13.4404 42.7284 17.708 43.5773C21.9756 44.4262 26.3991 43.9905 30.419 42.3254C34.439 40.6602 37.8749 37.8404 40.2923 34.2225C42.7097 30.6047 44 26.3512 44 22C44 19.1109 43.431 16.2501 42.3254 13.581C41.2198 10.9118 39.5992 8.48654 37.5564 6.44365C35.5135 4.40076 33.0882 2.78025 30.419 1.67465C27.7499 0.569047 24.8891 0 22 0ZM22 39.6C18.5191 39.6 15.1163 38.5678 12.222 36.6339C9.32767 34.7 7.07183 31.9512 5.73973 28.7352C4.40763 25.5192 4.05909 21.9805 4.73819 18.5664C5.41729 15.1523 7.09353 12.0163 9.55493 9.55492C12.0163 7.09352 15.1524 5.41728 18.5664 4.73818C21.9805 4.05908 25.5193 4.40762 28.7352 5.73972C31.9512 7.07182 34.7 9.32766 36.6339 12.222C38.5678 15.1163 39.6 18.519 39.6 22C39.6 26.6678 37.7457 31.1444 34.4451 34.4451C31.1444 37.7457 26.6678 39.6 22 39.6Z" fill="#545454"/>
<path d="M28.6008 19.8H24.2008V11C24.2008 10.4165 23.969 9.85693 23.5564 9.44435C23.1438 9.03177 22.5843 8.79999 22.0008 8.79999C21.4173 8.79999 20.8577 9.03177 20.4451 9.44435C20.0326 9.85693 19.8008 10.4165 19.8008 11V22C19.8008 22.5835 20.0326 23.143 20.4451 23.5556C20.8577 23.9682 21.4173 24.2 22.0008 24.2H28.6008C29.1843 24.2 29.7438 23.9682 30.1564 23.5556C30.569 23.143 30.8008 22.5835 30.8008 22C30.8008 21.4165 30.569 20.8569 30.1564 20.4444C29.7438 20.0318 29.1843 19.8 28.6008 19.8Z" fill="#545454"/>
</svg>
