<svg width="50" height="49" viewBox="0 0 50 49" fill="none" xmlns="http://www.w3.org/2000/svg">
<path d="M24.9999 0C19.0636 0.000247342 13.3211 2.1229 8.79992 5.98814C4.27871 9.85339 1.27381 15.209 0.322899 21.0967C-0.628014 26.9844 0.537109 33.02 3.60979 38.1235C6.68247 43.227 11.4622 47.0654 17.0937 48.9519C18.3437 49.1718 18.8125 48.4182 18.8125 47.7587C18.8125 47.1622 18.7812 45.184 18.7812 43.0802C12.5 44.242 10.875 41.5417 10.375 40.1287C9.82019 38.7545 8.94069 37.5367 7.81251 36.5805C6.93752 36.1095 5.68753 34.9477 7.78124 34.9164C8.5807 35.0035 9.34747 35.2831 10.0166 35.7313C10.6857 36.1794 11.2374 36.7831 11.625 37.4911C11.9669 38.1083 12.4267 38.6516 12.978 39.0899C13.5292 39.5283 14.1612 39.853 14.8375 40.0455C15.5139 40.238 16.2215 40.2945 16.9196 40.2118C17.6178 40.1291 18.2929 39.9088 18.9061 39.5634C19.0144 38.2864 19.5808 37.0924 20.4999 36.2038C14.9375 35.5758 9.125 33.4091 9.125 23.801C9.08987 21.3044 10.0067 18.889 11.6875 17.05C10.9232 14.8803 11.0126 12.4991 11.9375 10.3933C11.9375 10.3933 14.0311 9.73392 18.8124 12.9681C22.9031 11.8376 27.2217 11.8376 31.3123 12.9681C36.0935 9.70254 38.1873 10.3933 38.1873 10.3933C39.1123 12.499 39.2017 14.8803 38.4373 17.05C40.1231 18.8859 41.0408 21.3034 40.9998 23.801C40.9998 33.4405 35.156 35.5758 29.5936 36.2038C30.1902 36.8114 30.6497 37.5409 30.9409 38.3427C31.2321 39.1446 31.3481 40 31.2811 40.8509C31.2811 44.2107 31.2498 46.911 31.2498 47.7588C31.2498 48.4182 31.7186 49.2032 32.9686 48.952C38.5902 47.0501 43.3562 43.2027 46.4158 38.0966C49.4754 32.9905 50.6294 26.958 49.6719 21.076C48.7144 15.194 45.7077 9.84533 41.1884 5.98479C36.6692 2.12424 30.9316 0.00310204 24.9999 0Z" fill="black"/>
</svg>
