<svg width="512" height="320" viewBox="0 0 512 320" fill="none" xmlns="http://www.w3.org/2000/svg">
<path fill-rule="evenodd" clip-rule="evenodd" d="M235 0.629995C175.803 6.152 125.337 26.875 77.6142 65.256C64.1442 76.09 38.5082 101.857 27.6272 115.5C15.7532 130.389 1.2182 152.323 0.425203 156.55C0.0692031 158.447 0.0692031 161.553 0.425203 163.45C1.2182 167.677 15.7532 189.611 27.6272 204.5C38.5082 218.143 64.1442 243.91 77.6142 254.744C120.993 289.631 166.767 309.93 219.5 317.663C236.3 320.127 275.7 320.127 292.5 317.663C327.323 312.556 358.518 302.261 387.5 286.311C432.069 261.783 472.6 224.234 502.037 180.2C515.048 160.738 515.048 159.262 502.037 139.8C489.227 120.638 477.677 106.646 460.021 88.902C411.979 40.62 358.046 12.351 296 2.932C282.896 0.941997 246.408 -0.435005 235 0.629995ZM281.242 33.48C327.376 38.376 372.644 57.591 411.879 88.93C432.636 105.511 458.024 132.377 471.894 152.441L477.097 159.967L473.032 165.952C455.781 191.356 425.907 221.687 399.5 240.609C350.408 275.785 291.353 292.368 234.424 286.963C176.743 281.486 124.113 255.991 77.6152 211C64.8542 198.653 48.5332 179.75 40.0942 167.542L34.8802 160L39.9012 152.75C49.6852 138.62 58.5652 128.296 75.4302 111.442C99.5572 87.332 121.567 71.24 149.628 57.196C190.368 36.806 235.667 28.643 281.242 33.48ZM239.342 65.479C219.21 69.133 202.777 77.893 187.964 92.87C175.086 105.889 166.793 120.684 162.31 138.637C159.935 148.148 159.935 171.852 162.31 181.363C166.793 199.316 175.086 214.111 187.964 227.13C205.729 245.091 226.469 254.41 251.5 255.676C279.191 257.078 303.36 247.613 323.487 227.487C337.181 213.792 345.051 199.938 349.693 181.353C352.065 171.853 352.064 148.143 349.69 138.637C347.201 128.669 342.538 117.569 337.239 109C330.957 98.842 316.635 84.683 306.118 78.234C286.495 66.201 261.586 61.443 239.342 65.479ZM269.5 97.491C291.106 101.988 310.399 119.758 317.279 141.5C320.421 151.427 320.421 168.573 317.279 178.5C310.99 198.374 294.383 214.982 274.5 221.282C268.832 223.078 265.216 223.491 255.5 223.452C245.141 223.41 242.497 223.044 236.165 220.773C225.681 217.012 218.582 212.508 210.517 204.5C185.753 179.914 185.959 140.031 210.978 114.964C226.487 99.425 247.971 93.011 269.5 97.491Z" fill="white"/>
</svg>
