<svg width="21" height="21" viewBox="0 0 21 21" fill="#545454" xmlns="http://www.w3.org/2000/svg">
<path d="M20.7051 19.2296L16.812 15.365C18.3232 13.4793 19.055 11.0858 18.857 8.67674C18.659 6.26765 17.5462 4.02603 15.7474 2.41282C13.9486 0.799609 11.6005 -0.0625793 9.18605 0.0035401C6.77156 0.0696594 4.47414 1.05906 2.7662 2.7683C1.05826 4.47754 0.0696066 6.7767 0.00353741 9.19303C-0.0625317 11.6094 0.799002 13.9592 2.41099 15.7593C4.02298 17.5595 6.26289 18.6732 8.67016 18.8713C11.0774 19.0695 13.4691 18.3371 15.3533 16.8247L19.215 20.6894C19.3126 20.7878 19.4286 20.8659 19.5565 20.9192C19.6844 20.9726 19.8215 21 19.9601 21C20.0986 21 20.2358 20.9726 20.3636 20.9192C20.4915 20.8659 20.6076 20.7878 20.7051 20.6894C20.8943 20.4935 21 20.2318 21 19.9595C21 19.6871 20.8943 19.4254 20.7051 19.2296ZM9.46632 16.8247C8.01349 16.8247 6.59329 16.3936 5.3853 15.5858C4.17732 14.7781 3.23581 13.63 2.67984 12.2867C2.12386 10.9434 1.9784 9.46535 2.26183 8.03936C2.54526 6.61336 3.24487 5.3035 4.27217 4.27542C5.29948 3.24733 6.60834 2.5472 8.03326 2.26355C9.45817 1.9799 10.9351 2.12548 12.2774 2.68187C13.6196 3.23827 14.7668 4.18049 15.574 5.38939C16.3811 6.5983 16.812 8.01958 16.812 9.47351C16.812 11.4232 16.038 13.293 14.6605 14.6716C13.2829 16.0502 11.4145 16.8247 9.46632 16.8247Z"/>
</svg>
