<svg width="44" height="44" viewBox="0 0 44 44" fill="#545454" xmlns="http://www.w3.org/2000/svg">
<path d="M37.557 6.43457C29.8885 -1.23422 17.9218 -2.04794 9.33992 3.99202L9.47032 2.03462C9.52764 1.17477 8.87702 0.431214 8.01721 0.373891C7.15586 0.315677 6.41373 0.967083 6.35654 1.82706L5.98274 7.43411C5.98173 7.45 5.98249 7.46563 5.98198 7.48152C5.98096 7.50923 5.98007 7.53681 5.98058 7.56452C5.98096 7.5879 5.98249 7.61116 5.98389 7.63455C5.98554 7.66188 5.98745 7.68908 5.9905 7.7164C5.99316 7.7389 5.9966 7.76115 6.00016 7.78352C6.0046 7.81161 6.00943 7.83957 6.01541 7.8674C6.01986 7.888 6.02507 7.90846 6.0304 7.92879C6.0379 7.9579 6.04591 7.98688 6.05506 8.01548C6.06103 8.03429 6.06777 8.05272 6.07464 8.07128C6.08531 8.10064 6.09649 8.12975 6.10895 8.1586C6.1167 8.17627 6.12496 8.19368 6.13335 8.21109C6.14683 8.23931 6.16081 8.26727 6.17619 8.29485C6.1861 8.31277 6.19678 8.33019 6.20732 8.3476C6.22296 8.37328 6.23885 8.3987 6.25613 8.42348C6.26922 8.44242 6.28308 8.46072 6.29706 8.47915C6.31383 8.50127 6.33086 8.52326 6.34891 8.54474C6.35463 8.55148 6.35959 8.55885 6.36544 8.56558C6.37687 8.57868 6.38971 8.59024 6.40153 8.60295C6.41335 8.61566 6.4239 8.62901 6.43623 8.64134C6.44233 8.64744 6.44907 8.65252 6.45529 8.6585C6.47449 8.67705 6.49431 8.69447 6.51439 8.71188C6.53422 8.72917 6.55392 8.74671 6.57438 8.76285C6.59269 8.77721 6.61163 8.79056 6.63044 8.80403C6.6542 8.82119 6.67784 8.83822 6.70237 8.85385C6.71902 8.8644 6.73631 8.87394 6.75334 8.88398C6.78079 8.89999 6.80824 8.91601 6.83646 8.93024C6.8526 8.93838 6.86925 8.9455 6.88577 8.95312C6.91539 8.96685 6.945 8.98032 6.97525 8.99202C6.99267 8.99875 7.01059 9.00447 7.02825 9.01057C7.05799 9.02087 7.08773 9.03116 7.11786 9.03955C7.13794 9.04515 7.15827 9.04959 7.17861 9.0543C7.20708 9.06103 7.23542 9.06777 7.26415 9.07298C7.28664 9.07705 7.30927 9.07972 7.33202 9.08277C7.35922 9.08645 7.38642 9.09014 7.41374 9.0923C7.42137 9.09294 7.42874 9.09446 7.43624 9.09497L13.0652 9.46878C13.1004 9.47107 13.1353 9.47221 13.17 9.47221C13.9846 9.47221 14.6707 8.83987 14.7255 8.0151C14.7825 7.15524 14.1318 6.41182 13.2718 6.35475L11.5774 6.24226C18.9064 1.39135 28.9001 2.19096 35.3501 8.64134C38.9157 12.2071 40.8792 16.9496 40.8792 21.9955C40.8792 27.0413 38.9157 31.7841 35.3501 35.3497C31.7846 38.9153 27.0422 40.8791 21.9965 40.8791C16.9509 40.8791 12.2084 38.9153 8.64291 35.3497C6.27265 32.9795 4.57526 30.021 3.73386 26.794C2.91777 23.6636 2.91612 20.349 3.72904 17.2084C3.94498 16.3742 3.44383 15.5227 2.60955 15.3068C1.77566 15.0909 0.923849 15.592 0.707909 16.4263C-0.238084 20.0803 -0.235922 23.9377 0.714137 27.5814C1.69534 31.3449 3.67413 34.7943 6.43623 37.5565C10.5913 41.7116 16.1174 44 21.9966 44C27.8759 44 33.4019 41.7116 37.5569 37.5565C41.7118 33.4013 44 27.875 44 21.9955C44.0001 16.1162 41.712 10.5897 37.557 6.43457Z"/>
</svg>
