<svg width="39.5" height="39.5" viewBox="0 0 40 40" fill="#545454" xmlns="http://www.w3.org/2000/svg">
<path d="M21.3958 34.5625C20.9593 34.5625 20.5407 34.7359 20.2321 35.0446C19.9234 35.3532 19.75 35.7719 19.75 36.2084C19.75 36.6449 19.9234 37.0635 20.2321 37.3722C20.5407 37.6808 20.9593 37.8542 21.3958 37.8542H34.5625C34.999 37.8542 35.4176 37.6808 35.7263 37.3722C36.0349 37.0635 36.2083 36.6449 36.2083 36.2084V3.29171C36.2083 2.85521 36.0349 2.43658 35.7263 2.12793C35.4176 1.81927 34.999 1.64587 34.5625 1.64587H21.3958C20.9593 1.64587 20.5407 1.81927 20.2321 2.12793C19.9234 2.43658 19.75 2.85521 19.75 3.29171C19.75 3.72821 19.9234 4.14683 20.2321 4.45549C20.5407 4.76414 20.9593 4.93754 21.3958 4.93754H32.9167V34.5625H21.3958Z"/>
<path d="M3.29102 19.75C3.29102 20.1865 3.46442 20.6051 3.77307 20.9138C4.08172 21.2224 4.50035 21.3958 4.93685 21.3958H24.0055L20.2316 25.1697C20.0744 25.3216 19.949 25.5032 19.8627 25.704C19.7765 25.9048 19.7311 26.1207 19.7292 26.3393C19.7273 26.5578 19.7689 26.7745 19.8517 26.9768C19.9344 27.179 20.0566 27.3628 20.2112 27.5173C20.3657 27.6719 20.5495 27.7941 20.7517 27.8768C20.954 27.9596 21.1707 28.0012 21.3893 27.9993C21.6078 27.9974 21.8238 27.952 22.0246 27.8658C22.2254 27.7795 22.407 27.6541 22.5588 27.4969L29.1421 20.9136C29.4507 20.605 29.624 20.1864 29.624 19.75C29.624 19.3136 29.4507 18.895 29.1421 18.5864L22.5588 12.0031C22.407 11.8459 22.2254 11.7205 22.0246 11.6342C21.8238 11.548 21.6078 11.5026 21.3893 11.5007C21.1707 11.4988 20.954 11.5404 20.7517 11.6232C20.5495 11.7059 20.3657 11.8281 20.2112 11.9827C20.0566 12.1372 19.9344 12.321 19.8517 12.5232C19.7689 12.7255 19.7273 12.9422 19.7292 13.1607C19.7311 13.3793 19.7765 13.5952 19.8627 13.796C19.949 13.9968 20.0744 14.1784 20.2316 14.3303L24.0055 18.1042H4.93685C4.50035 18.1042 4.08172 18.2776 3.77307 18.5862C3.46442 18.8949 3.29102 19.3135 3.29102 19.75Z"/>
</svg>
