<svg width="31" height="28" viewBox="0 0 31 28" fill="#545454" xmlns="http://www.w3.org/2000/svg">
<path d="M1.40909 7H15.5C15.8737 7 16.2321 6.8525 16.4964 6.58995C16.7606 6.3274 16.9091 5.9713 16.9091 5.6C16.9091 5.2287 16.7606 4.8726 16.4964 4.61005C16.2321 4.3475 15.8737 4.2 15.5 4.2H1.40909C1.03538 4.2 0.676969 4.3475 0.412713 4.61005C0.148457 4.8726 0 5.2287 0 5.6C0 5.9713 0.148457 6.3274 0.412713 6.58995C0.676969 6.8525 1.03538 7 1.40909 7ZM29.5909 4.2H22.5455V1.4C22.5455 1.0287 22.397 0.672601 22.1327 0.41005C21.8685 0.1475 21.5101 0 21.1364 0C20.7626 0 20.4042 0.1475 20.14 0.41005C19.8757 0.672601 19.7273 1.0287 19.7273 1.4V9.8C19.7273 10.1713 19.8757 10.5274 20.14 10.7899C20.4042 11.0525 20.7626 11.2 21.1364 11.2C21.5101 11.2 21.8685 11.0525 22.1327 10.7899C22.397 10.5274 22.5455 10.1713 22.5455 9.8V7H29.5909C29.9646 7 30.323 6.8525 30.5873 6.58995C30.8515 6.3274 31 5.9713 31 5.6C31 5.2287 30.8515 4.8726 30.5873 4.61005C30.323 4.3475 29.9646 4.2 29.5909 4.2ZM29.5909 21H16.9091V18.2C16.9091 17.8287 16.7606 17.4726 16.4964 17.2101C16.2321 16.9475 15.8737 16.8 15.5 16.8C15.1263 16.8 14.7679 16.9475 14.5036 17.2101C14.2394 17.4726 14.0909 17.8287 14.0909 18.2V26.6C14.0909 26.9713 14.2394 27.3274 14.5036 27.59C14.7679 27.8525 15.1263 28 15.5 28C15.8737 28 16.2321 27.8525 16.4964 27.59C16.7606 27.3274 16.9091 26.9713 16.9091 26.6V23.8H29.5909C29.9646 23.8 30.323 23.6525 30.5873 23.3899C30.8515 23.1274 31 22.7713 31 22.4C31 22.0287 30.8515 21.6726 30.5873 21.41C30.323 21.1475 29.9646 21 29.5909 21ZM9.86364 23.8C10.2374 23.8 10.5958 23.6525 10.86 23.3899C11.1243 23.1274 11.2727 22.7713 11.2727 22.4C11.2727 22.0287 11.1243 21.6726 10.86 21.41C10.5958 21.1475 10.2374 21 9.86364 21H1.40909C1.03538 21 0.676969 21.1475 0.412713 21.41C0.148457 21.6726 0 22.0287 0 22.4C0 22.7713 0.148457 23.1274 0.412713 23.3899C0.676969 23.6525 1.03538 23.8 1.40909 23.8H9.86364Z" />
</svg>
