<svg width="42" height="32" viewBox="0 0 42 32" fill="none" xmlns="http://www.w3.org/2000/svg">
<path d="M18.4308 31.9688L14.6183 30.8625C14.2183 30.75 13.9933 30.3312 14.1058 29.9312L22.6371 0.543746C22.7496 0.143746 23.1683 -0.0812541 23.5683 0.0312459L27.3808 1.1375C27.7808 1.25 28.0058 1.66875 27.8933 2.06875L19.3621 31.4562C19.2433 31.8562 18.8308 32.0875 18.4308 31.9688ZM11.3059 24.9562L14.0246 22.0562C14.3121 21.75 14.2933 21.2625 13.9746 20.9812L8.3121 16L13.9746 11.0187C14.2933 10.7375 14.3183 10.25 14.0246 9.94375L11.3059 7.04375C11.0246 6.74375 10.5496 6.725 10.2434 7.0125L1.23711 15.45C0.918359 15.7437 0.918359 16.25 1.23711 16.5437L10.2434 24.9875C10.5496 25.275 11.0246 25.2625 11.3059 24.9562ZM31.7558 24.9937L40.7621 16.55C41.0808 16.2562 41.0808 15.75 40.7621 15.4562L31.7558 7.00625C31.4558 6.725 30.9808 6.7375 30.6933 7.0375L27.9746 9.9375C27.6871 10.2437 27.7058 10.7312 28.0246 11.0125L33.6871 16L28.0246 20.9812C27.7058 21.2625 27.6808 21.75 27.9746 22.0562L30.6933 24.9562C30.9746 25.2625 31.4496 25.275 31.7558 24.9937Z" fill="#545454"/>
</svg>
