<svg width="44" height="44" viewBox="0 0 44 44"  fill="#545454" xmlns="http://www.w3.org/2000/svg">
<path d="M30.0629 13.9371C29.8609 13.7334 29.6205 13.5717 29.3557 13.4614C29.0908 13.351 28.8068 13.2942 28.5199 13.2942C28.233 13.2942 27.9489 13.351 27.6841 13.4614C27.4192 13.5717 27.1789 13.7334 26.9768 13.9371L22 18.9357L17.0232 13.9371C16.6139 13.5278 16.0589 13.2979 15.4801 13.2979C14.9014 13.2979 14.3463 13.5278 13.9371 13.9371C13.5278 14.3463 13.2979 14.9014 13.2979 15.4801C13.2979 16.0589 13.5278 16.6139 13.9371 17.0232L18.9357 22L13.9371 26.9768C13.7334 27.1789 13.5717 27.4192 13.4614 27.6841C13.351 27.9489 13.2942 28.233 13.2942 28.5199C13.2942 28.8068 13.351 29.0908 13.4614 29.3557C13.5717 29.6205 13.7334 29.8609 13.9371 30.0629C14.1391 30.2666 14.3795 30.4283 14.6443 30.5386C14.9092 30.649 15.1932 30.7058 15.4801 30.7058C15.767 30.7058 16.0511 30.649 16.3159 30.5386C16.5807 30.4283 16.8211 30.2666 17.0232 30.0629L22 25.0643L26.9768 30.0629C27.1789 30.2666 27.4192 30.4283 27.6841 30.5386C27.9489 30.649 28.233 30.7058 28.5199 30.7058C28.8068 30.7058 29.0908 30.649 29.3557 30.5386C29.6205 30.4283 29.8609 30.2666 30.0629 30.0629C30.2666 29.8609 30.4283 29.6205 30.5386 29.3557C30.649 29.0908 30.7058 28.8068 30.7058 28.5199C30.7058 28.233 30.649 27.9489 30.5386 27.6841C30.4283 27.4192 30.2666 27.1789 30.0629 26.9768L25.0643 22L30.0629 17.0232C30.2666 16.8211 30.4283 16.5807 30.5386 16.3159C30.649 16.0511 30.7058 15.767 30.7058 15.4801C30.7058 15.1932 30.649 14.9092 30.5386 14.6443C30.4283 14.3795 30.2666 14.1391 30.0629 13.9371ZM37.3652 6.63481C35.3604 4.55909 32.9623 2.90343 30.3108 1.76443C27.6593 0.625426 24.8075 0.0258964 21.9218 0.000820565C19.0361 -0.0242553 16.1743 0.525625 13.5034 1.61838C10.8325 2.71113 8.406 4.32487 6.36543 6.36543C4.32487 8.406 2.71113 10.8325 1.61838 13.5034C0.525625 16.1743 -0.0242553 19.0361 0.000820565 21.9218C0.0258964 24.8075 0.625426 27.6593 1.76443 30.3108C2.90343 32.9623 4.55909 35.3604 6.63481 37.3652C8.6396 39.4409 11.0377 41.0966 13.6892 42.2356C16.3407 43.3746 19.1925 43.9741 22.0782 43.9992C24.9639 44.0243 27.8257 43.4744 30.4966 42.3816C33.1675 41.2889 35.594 39.6751 37.6346 37.6346C39.6751 35.594 41.2889 33.1675 42.3816 30.4966C43.4744 27.8257 44.0243 24.9639 43.9992 22.0782C43.9741 19.1925 43.3746 16.3407 42.2356 13.6892C41.0966 11.0377 39.4409 8.6396 37.3652 6.63481ZM34.3008 34.3008C31.4583 37.1466 27.7169 38.9187 23.7143 39.3153C19.7116 39.7119 15.6953 38.7084 12.3495 36.4758C9.00378 34.2432 6.53562 30.9196 5.36555 27.0713C4.19548 23.223 4.39589 19.0881 5.93265 15.371C7.4694 11.6539 10.2474 8.58458 13.7934 6.68602C17.3394 4.78746 21.4339 4.1771 25.3795 4.95892C29.325 5.74075 32.8774 7.8664 35.4315 10.9737C37.9855 14.081 39.3832 17.9777 39.3863 22C39.3941 24.2848 38.9486 26.5484 38.0757 28.6598C37.2028 30.7712 35.9197 32.6886 34.3008 34.3008Z"/>
</svg>
