<svg width="35" height="22" viewBox="0 0 35 22"  fill="#545454" xmlns="http://www.w3.org/2000/svg">
<path d="M11.1364 5.5C10.0351 5.5 8.95853 5.82257 8.04285 6.42692C7.12717 7.03126 6.41348 7.89025 5.99203 8.89524C5.57059 9.90024 5.46032 11.0061 5.67517 12.073C5.89002 13.1399 6.42034 14.1199 7.19906 14.8891C7.97779 15.6583 8.96994 16.1821 10.0501 16.3943C11.1302 16.6065 12.2498 16.4976 13.2672 16.0813C14.2847 15.6651 15.1543 14.9601 15.7661 14.0556C16.378 13.1512 16.7045 12.0878 16.7045 11C16.7045 9.54131 16.1179 8.14236 15.0737 7.11091C14.0294 6.07946 12.6131 5.5 11.1364 5.5ZM11.1364 13.3571C10.6644 13.3571 10.203 13.2189 9.81057 12.9599C9.41814 12.7009 9.11227 12.3328 8.93165 11.902C8.75103 11.4713 8.70377 10.9974 8.79585 10.5401C8.88793 10.0829 9.11521 9.6629 9.44895 9.33325C9.78269 9.0036 10.2079 8.7791 10.6708 8.68815C11.1337 8.5972 11.6135 8.64388 12.0496 8.82228C12.4856 9.00069 12.8583 9.30281 13.1206 9.69044C13.3828 10.0781 13.5227 10.5338 13.5227 11C13.5227 11.6252 13.2713 12.2247 12.8238 12.6668C12.3762 13.1088 11.7693 13.3571 11.1364 13.3571ZM23.8636 0H11.1364C8.18282 4.34724e-08 5.35024 1.15893 3.26177 3.22183C1.17329 5.28473 0 8.08262 0 11C0 13.9174 1.17329 16.7153 3.26177 18.7782C5.35024 20.8411 8.18282 22 11.1364 22H23.8636C26.8172 22 29.6498 20.8411 31.7382 18.7782C33.8267 16.7153 35 13.9174 35 11C35 8.08262 33.8267 5.28473 31.7382 3.22183C29.6498 1.15893 26.8172 4.34724e-08 23.8636 0ZM23.8636 18.8571H11.1364C9.02669 18.8571 7.00342 18.0293 5.51165 16.5558C4.01988 15.0823 3.18182 13.0838 3.18182 11C3.18182 8.91616 4.01988 6.91766 5.51165 5.44416C7.00342 3.97066 9.02669 3.14286 11.1364 3.14286H23.8636C25.9733 3.14286 27.9966 3.97066 29.4883 5.44416C30.9801 6.91766 31.8182 8.91616 31.8182 11C31.8182 13.0838 30.9801 15.0823 29.4883 16.5558C27.9966 18.0293 25.9733 18.8571 23.8636 18.8571Z"/>
</svg>
