<svg width="512" height="512" viewBox="0 0 512 512" fill="none" xmlns="http://www.w3.org/2000/svg">
<path fill-rule="evenodd" clip-rule="evenodd" d="M490.426 1.58876C488.776 2.44676 460.643 29.8858 427.907 62.5638L368.389 121.979L357.407 116.555C272.692 74.7088 191.396 84.4958 104.426 147.009C71.1209 170.949 29.8939 211.262 5.00888 244.222C-0.163122 251.072 -1.28512 256.668 1.43588 262.032C3.83488 266.759 19.5199 286.061 32.6539 300.448C55.5139 325.488 85.4699 352.043 109.603 368.66L116.779 373.601L60.2859 430.025C29.2139 461.058 2.92188 488.118 1.85888 490.158C-0.613122 494.904 -0.589122 499.017 1.93888 503.974C4.20288 508.411 9.96388 511.948 14.9259 511.948C16.6199 511.948 19.6749 511.078 21.7159 510.014C26.3629 507.592 508.118 25.6878 510.331 21.2478C516.44 8.99076 502.556 -4.72224 490.426 1.58876ZM280.767 153.986C285.354 155.169 292.316 157.46 296.239 159.077C303.508 162.075 317.926 170.524 317.926 171.787C317.926 172.17 313.247 177.147 307.527 182.847L297.128 193.211L291.777 190.2C276.986 181.88 258.154 179.03 241.134 182.536C201.767 190.646 175.573 228.37 181.964 267.754C183.289 275.914 185.27 281.817 189.558 290.379L193.029 297.31L182.745 307.629C177.089 313.305 172.148 317.948 171.765 317.948C170.499 317.948 162.049 303.521 159.038 296.219C153.053 281.706 151.471 273.088 151.552 255.448C151.612 242.591 152.03 237.969 153.679 231.917C159.202 211.656 168.357 195.396 181.823 181.93C197.366 166.387 219.017 155.324 240.426 151.987C250.136 150.473 271.186 151.517 280.767 153.986ZM387.02 188.354L354.749 220.636L356.797 227.265C367.533 262.026 356.787 303.208 329.987 330.009C303.185 356.81 262.004 367.555 227.241 356.818L220.609 354.77L196.561 378.819C183.334 392.045 172.788 403.143 173.126 403.481C174.309 404.665 196.056 411.946 205.735 414.4C224.911 419.26 234.044 420.324 256.426 420.302C273.635 420.286 279.593 419.887 289.426 418.096C325.1 411.595 360.063 396.853 394.926 373.611C431.674 349.112 468.525 315.011 499.925 276.447C515.79 256.962 515.79 254.934 499.925 235.449C476.79 207.036 441.698 172.185 421.858 157.918L419.291 156.072L387.02 188.354ZM287.549 287.825C255.447 319.934 246.117 329.807 247.408 330.303C252.892 332.407 272.83 329.912 283.314 325.809C304.452 317.537 322.436 297.32 328.451 275.066C330.32 268.154 331.545 249.876 330.29 247.634C329.54 246.294 321.715 253.652 287.549 287.825Z" fill="white"/>
</svg>
