<svg width="1042" height="835" viewBox="0 0 1042 835" fill="none" xmlns="http://www.w3.org/2000/svg">
<circle cx="3.5" cy="3.5" r="3.5" fill="white"/>
<circle cx="210.5" cy="3.5" r="3.5" fill="white"/>
<circle cx="417.5" cy="3.5" r="3.5" fill="white"/>
<circle cx="624.5" cy="3.5" r="3.5" fill="white"/>
<circle cx="831.5" cy="3.5" r="3.5" fill="white"/>
<circle cx="1038.5" cy="3.5" r="3.5" fill="white"/>
<circle cx="3.5" cy="210.5" r="3.5" fill="white"/>
<circle cx="210.5" cy="210.5" r="3.5" fill="white"/>
<circle cx="417.5" cy="210.5" r="3.5" fill="white"/>
<circle cx="624.5" cy="210.5" r="3.5" fill="white"/>
<circle cx="831.5" cy="210.5" r="3.5" fill="white"/>
<circle cx="1038.5" cy="210.5" r="3.5" fill="white"/>
<circle cx="3.5" cy="417.5" r="3.5" fill="white"/>
<circle cx="210.5" cy="417.5" r="3.5" fill="white"/>
<circle cx="417.5" cy="417.5" r="3.5" fill="white"/>
<circle cx="624.5" cy="417.5" r="3.5" fill="white"/>
<circle cx="831.5" cy="417.5" r="3.5" fill="white"/>
<circle cx="1038.5" cy="417.5" r="3.5" fill="white"/>
<circle cx="3.5" cy="624.5" r="3.5" fill="white"/>
<circle cx="210.5" cy="624.5" r="3.5" fill="white"/>
<circle cx="417.5" cy="624.5" r="3.5" fill="white"/>
<circle cx="624.5" cy="624.5" r="3.5" fill="white"/>
<circle cx="831.5" cy="624.5" r="3.5" fill="white"/>
<circle cx="1038.5" cy="624.5" r="3.5" fill="white"/>
<circle cx="3.5" cy="831.5" r="3.5" fill="white"/>
<circle cx="210.5" cy="831.5" r="3.5" fill="white"/>
<circle cx="417.5" cy="831.5" r="3.5" fill="white"/>
<circle cx="624.5" cy="831.5" r="3.5" fill="white"/>
<circle cx="831.5" cy="831.5" r="3.5" fill="white"/>
<circle cx="1038.5" cy="831.5" r="3.5" fill="white"/>
</svg>
