<svg width="24" height="24" viewBox="0 0 24 24" fill="none" xmlns="http://www.w3.org/2000/svg">
<rect x="12" y="18" width="6" height="6" fill="#7900FF"/>
<rect x="6" y="18" width="6" height="6" fill="#7ECA9C"/>
<rect y="18" width="6" height="6" fill="#7ECA9C"/>
<rect y="12" width="6" height="6" fill="#7900FF"/>
<rect x="6" y="12" width="6" height="6" fill="#7900FF"/>
<rect x="12" y="12" width="6" height="6" fill="#7ECA9C"/>
<rect y="6" width="6" height="6" fill="#7ECA9C"/>
<rect width="6" height="6" transform="matrix(-1 0 0 1 6 0)" fill="#7900FF"/>
<rect width="6" height="6" transform="matrix(-1 0 0 1 18 6)" fill="#7900FF"/>
<rect width="6" height="6" transform="matrix(-1 0 0 1 24 6)" fill="#7900FF"/>
<rect width="6" height="6" transform="matrix(-1 0 0 1 24 12)" fill="#7ECA9C"/>
<rect width="6" height="6" transform="matrix(-1 0 0 1 24 18)" fill="#7ECA9C"/>
<rect width="6" height="6" transform="matrix(-1 0 0 1 12 0)" fill="#7ECA9C"/>
</svg>
