<svg width="146" height="85" viewBox="0 0 146 85" fill="none" xmlns="http://www.w3.org/2000/svg">
<g opacity="0.2">
<path d="M41.5999 82.9999H131.41C136.464 82.9999 140.723 79.2289 141.336 74.2122L143.89 53.3031C144.618 47.3437 139.967 42.0908 133.963 42.0908H44.1535C39.0995 42.0908 34.8399 45.8618 34.2273 50.8786L31.6737 71.7877C30.9459 77.747 35.5963 82.9999 41.5999 82.9999Z" stroke="#E5E5E5" stroke-width="4"/>
<path d="M18.1459 53H121.9C128.411 53 133.918 48.1831 134.785 41.7299L137.738 19.7299C138.785 11.9329 132.721 5 124.854 5H21.0997C14.5886 5 9.08176 9.81688 8.21533 16.2701L5.26151 38.2701C4.21465 46.0672 10.2789 53 18.1459 53Z" fill="#E5E5E5" stroke="#282133" stroke-width="10"/>
<path d="M48.4479 19.5527L45.1719 38.2727H40.4659L41.6619 31.5127H36.5919L35.4219 38.2727H30.7159L34.0179 19.5527H38.6979L37.2939 27.4567H42.3639L43.7679 19.5527H48.4479ZM56.7228 26.1307L61.1168 19.5527H65.7968L57.7888 31.0707L56.5148 38.2727H51.8088L53.0828 31.0707L49.1308 19.5527H54.0968L56.1248 26.1307H56.7228ZM72.0252 32.5787H68.9312L67.9172 38.2727H63.2372L66.5392 19.5527H74.4692C76.4279 19.5527 77.8232 20.0034 78.6552 20.9047C79.2619 21.598 79.5652 22.482 79.5652 23.5567C79.5652 23.9207 79.5306 24.302 79.4612 24.7007L78.9412 27.6387C78.6812 29.0774 77.9186 30.2647 76.6532 31.2007C75.3879 32.1194 73.8452 32.5787 72.0252 32.5787ZM72.8312 23.6087H70.4912L69.6332 28.5227H71.9472C73.3686 28.5227 74.1919 27.89 74.4172 26.6247L74.5992 25.5587C74.6339 25.4027 74.6512 25.1947 74.6512 24.9347C74.6512 24.6747 74.5212 24.3887 74.2612 24.0767C74.0012 23.7647 73.5246 23.6087 72.8312 23.6087ZM91.6993 38.2727H78.6473L81.9493 19.5527H95.0013L94.2733 23.6087H85.9013L85.3033 27.1187H92.2193L91.4913 31.1747H84.5753L84.0553 34.2167H92.4273L91.6993 38.2727ZM104.366 19.5527C106.342 19.5527 107.746 19.986 108.578 20.8527C109.202 21.5114 109.514 22.3434 109.514 23.3487C109.514 23.6954 109.48 24.0594 109.41 24.4407L109.046 26.4687C108.838 27.5954 108.474 28.5054 107.954 29.1987C107.452 29.892 106.888 30.386 106.264 30.6807L108.63 38.2727H103.378L101.194 31.2787H99.5822L98.5162 38.2727H93.5242L96.8262 19.5527H104.366ZM102.728 23.6087H100.778L100.102 28.1327H101.922C102.841 28.1327 103.5 27.916 103.898 27.4827C104.297 27.032 104.496 26.4427 104.496 25.7147C104.496 24.3107 103.907 23.6087 102.728 23.6087Z" fill="#282133"/>
<path d="M66.4204 67.5787H63.3263L62.3123 73.2727H57.6323L60.9343 54.5527H68.8644C70.823 54.5527 72.2184 55.0034 73.0504 55.9047C73.657 56.598 73.9603 57.482 73.9603 58.5567C73.9603 58.9207 73.9257 59.302 73.8563 59.7007L73.3364 62.6387C73.0764 64.0774 72.3137 65.2647 71.0484 66.2007C69.783 67.1194 68.2403 67.5787 66.4204 67.5787ZM67.2263 58.6087H64.8863L64.0283 63.5227H66.3423C67.7637 63.5227 68.587 62.89 68.8124 61.6247L68.9944 60.5587C69.029 60.4027 69.0464 60.1947 69.0464 59.9347C69.0464 59.6747 68.9164 59.3887 68.6564 59.0767C68.3964 58.7647 67.9197 58.6087 67.2263 58.6087ZM84.8984 73.2727H73.0424L76.3444 54.5527H81.0244L78.4504 69.2167H85.6264L84.8984 73.2727ZM95.0679 73.2727L95.2239 69.1907H90.8819L89.6079 73.2727H84.6419L91.3239 54.5527H99.9039L100.008 73.2727H95.0679ZM94.0019 59.1027L91.9479 65.7067H95.3539L95.6399 59.1027H94.0019ZM119.03 54.5527L115.754 73.2727H111.048L107.772 63.0287L106.004 73.2727H101.298L104.6 54.5527H109.436L112.66 64.1207L114.35 54.5527H119.03Z" fill="#E5E5E5"/>
</g>
</svg>
