<svg width="1677" height="394" viewBox="0 0 1677 394" fill="none" xmlns="http://www.w3.org/2000/svg">
<path d="M1522.88 81.88H1565.5V173.464H1567.23C1568.96 169.24 1571.07 165.304 1573.56 161.656C1576.06 158.008 1579.04 154.84 1582.49 152.152C1586.14 149.272 1590.27 147.064 1594.88 145.528C1599.68 143.8 1605.05 142.936 1611 142.936C1618.11 142.936 1624.64 144.184 1630.59 146.68C1636.54 148.984 1641.63 152.536 1645.85 157.336C1650.08 162.136 1653.34 167.992 1655.64 174.904C1658.14 181.816 1659.39 189.784 1659.39 198.808V295H1616.76V204.568C1616.76 185.368 1608.41 175.768 1591.71 175.768C1588.44 175.768 1585.18 176.248 1581.92 177.208C1578.84 177.976 1576.06 179.32 1573.56 181.24C1571.07 182.968 1569.05 185.176 1567.52 187.864C1566.17 190.552 1565.5 193.72 1565.5 197.368V295H1522.88V81.88Z" fill="white"/>
<path d="M124.284 213.432L126.588 157.272H123.996L86.5563 260.664L49.1163 157.272H46.5243L48.8283 213.432V303H11.3883V101.976H62.3643L87.1323 169.656H89.4363L114.204 101.976H161.724V303H124.284V213.432Z" fill="white"/>
<path d="M1022.47 261.88H1056.74V179.512H1022.47V146.392H1099.36V188.44H1101.38C1102.72 183.064 1104.55 177.88 1106.85 172.888C1109.35 167.704 1112.42 163.192 1116.07 159.352C1119.91 155.32 1124.52 152.152 1129.89 149.848C1135.27 147.544 1141.6 146.392 1148.9 146.392H1163.01V185.56H1131.33C1120.77 185.56 1112.8 188.728 1107.43 195.064C1102.05 201.208 1099.36 208.792 1099.36 217.816V261.88H1148.32V295H1022.47V261.88Z" fill="white"/>
<path d="M433.233 295C417.873 295 406.449 290.968 398.961 282.904C391.473 274.84 387.729 264.568 387.729 252.088V179.512H347.409V146.392H373.617C379.953 146.392 384.465 145.144 387.153 142.648C389.841 140.152 391.185 135.544 391.185 128.824V93.976H430.353V146.392H488.241V179.512H430.353V261.88H488.241V295H433.233ZM529.312 261.88H563.584V179.512H529.312V146.392H606.208V188.44H608.224C609.568 183.064 611.392 177.88 613.696 172.888C616.192 167.704 619.264 163.192 622.912 159.352C626.752 155.32 631.36 152.152 636.736 149.848C642.112 147.544 648.448 146.392 655.744 146.392H669.856V185.56H638.176C627.616 185.56 619.648 188.728 614.272 195.064C608.896 201.208 606.208 208.792 606.208 217.816V261.88H655.168V295H529.312V261.88Z" fill="white"/>
<circle cx="751.5" cy="215.5" r="63" stroke="white" stroke-width="33"/>
<circle cx="1253.5" cy="215.5" r="63" stroke="white" stroke-width="33"/>
<path fill-rule="evenodd" clip-rule="evenodd" d="M335 215.5C335 171.593 299.407 136 255.5 136C211.593 136 176 171.593 176 215.5H335Z" fill="white"/>
<circle cx="921.5" cy="215.5" r="63" stroke="white" stroke-width="33"/>
<circle cx="1429.5" cy="215.5" r="63" stroke="white" stroke-width="33"/>
<rect x="935.48" y="166.164" width="51.5982" height="45.1076" transform="rotate(-49.5035 935.48 166.164)" fill="white"/>
<rect x="842" y="295" width="159" height="33" fill="white"/>
<rect x="1350" y="345" width="209" height="33" transform="rotate(-90 1350 345)" fill="white"/>
<rect x="1300" y="295" width="159" height="33" transform="rotate(-90 1300 295)" fill="white"/>
<path d="M842 342L1001 322L1001 353L842.001 377L842 342Z" fill="white"/>
<circle cx="921.5" cy="215.5" r="36.5" fill="white"/>
</svg>
