<svg width="1677" height="414" viewBox="0 0 1677 414" fill="none" xmlns="http://www.w3.org/2000/svg">
<path d="M1522.88 101.88H1565.5V193.464H1567.23C1568.96 189.24 1571.07 185.304 1573.56 181.656C1576.06 178.008 1579.04 174.84 1582.49 172.152C1586.14 169.272 1590.27 167.064 1594.88 165.528C1599.68 163.8 1605.05 162.936 1611 162.936C1618.11 162.936 1624.64 164.184 1630.59 166.68C1636.54 168.984 1641.63 172.536 1645.85 177.336C1650.08 182.136 1653.34 187.992 1655.64 194.904C1658.14 201.816 1659.39 209.784 1659.39 218.808V315H1616.76V224.568C1616.76 205.368 1608.41 195.768 1591.71 195.768C1588.44 195.768 1585.18 196.248 1581.92 197.208C1578.84 197.976 1576.06 199.32 1573.56 201.24C1571.07 202.968 1569.05 205.176 1567.52 207.864C1566.17 210.552 1565.5 213.72 1565.5 217.368V315H1522.88V101.88Z" fill="white"/>
<path d="M124.284 233.432L126.588 177.272H123.996L86.5563 280.664L49.1163 177.272H46.5243L48.8283 233.432V323H11.3883V121.976H62.3643L87.1323 189.656H89.4363L114.204 121.976H161.724V323H124.284V233.432Z" fill="white"/>
<path d="M1022.47 281.88H1056.74V199.512H1022.47V166.392H1099.36V208.44H1101.38C1102.72 203.064 1104.55 197.88 1106.85 192.888C1109.35 187.704 1112.42 183.192 1116.07 179.352C1119.91 175.32 1124.52 172.152 1129.89 169.848C1135.27 167.544 1141.6 166.392 1148.9 166.392H1163.01V205.56H1131.33C1120.77 205.56 1112.8 208.728 1107.43 215.064C1102.05 221.208 1099.36 228.792 1099.36 237.816V281.88H1148.32V315H1022.47V281.88Z" fill="white"/>
<path d="M433.233 315C417.873 315 406.449 310.968 398.961 302.904C391.473 294.84 387.729 284.568 387.729 272.088V199.512H347.409V166.392H373.617C379.953 166.392 384.465 165.144 387.153 162.648C389.841 160.152 391.185 155.544 391.185 148.824V113.976H430.353V166.392H488.241V199.512H430.353V281.88H488.241V315H433.233ZM529.312 281.88H563.584V199.512H529.312V166.392H606.208V208.44H608.224C609.568 203.064 611.392 197.88 613.696 192.888C616.192 187.704 619.264 183.192 622.912 179.352C626.752 175.32 631.36 172.152 636.736 169.848C642.112 167.544 648.448 166.392 655.744 166.392H669.856V205.56H638.176C627.616 205.56 619.648 208.728 614.272 215.064C608.896 221.208 606.208 228.792 606.208 237.816V281.88H655.168V315H529.312V281.88Z" fill="white"/>
<circle cx="751.5" cy="235.5" r="63" stroke="white" stroke-width="33"/>
<circle cx="1253.5" cy="235.5" r="63" stroke="white" stroke-width="33"/>
<path fill-rule="evenodd" clip-rule="evenodd" d="M335 235.5C335 191.593 299.407 156 255.5 156C211.593 156 176 191.593 176 235.5H335Z" fill="white"/>
<circle cx="921.5" cy="235.5" r="63" stroke="white" stroke-width="33"/>
<circle cx="1429.5" cy="235.5" r="63" stroke="white" stroke-width="33"/>
<rect x="935.48" y="186.164" width="51.5982" height="45.1076" transform="rotate(-49.5035 935.48 186.164)" fill="white"/>
<rect x="842" y="315" width="159" height="33" fill="white"/>
<rect x="1350" y="365" width="129" height="33" transform="rotate(-90 1350 365)" fill="white"/>
<rect x="1300" y="315" width="83" height="33" transform="rotate(-90 1300 315)" fill="white"/>
<path d="M842 362L1001 342L1001 373L842.001 397L842 362Z" fill="white"/>
<circle cx="921.5" cy="235.5" r="36.5" fill="white"/>
<circle cx="86.5" cy="38.5" r="36.5" fill="#1C1427"/>
<circle cx="255.5" cy="38.5" r="36.5" fill="#1C1427"/>
<circle cx="1587.5" cy="38.5" r="36.5" fill="#1C1427"/>
<circle cx="1253.5" cy="38.5" r="36.5" fill="#1C1427"/>
<circle cx="584.5" cy="36.5" r="36.5" fill="#1C1427"/>
<line x1="584" y1="42" x2="86" y2="42" stroke="#1C1427" stroke-width="10"/>
<line x1="1587" y1="44" x2="1253" y2="44" stroke="#1C1427" stroke-width="10"/>
<line x1="1252.99" y1="44" x2="583.985" y2="42" stroke="#1C1427" stroke-width="10"/>
</svg>
