<svg width="512" height="384" viewBox="0 0 512 384" fill="none" xmlns="http://www.w3.org/2000/svg">
<path fill-rule="evenodd" clip-rule="evenodd" d="M430.5 2.80997C423.701 7.88597 65.2409 367.355 64.5039 369.837C62.1199 377.867 69.5669 385.567 77.7499 383.533C79.5449 383.087 91.9789 371.408 113.548 349.91L146.596 316.97L156.548 321.024C180.015 330.583 207.749 337.606 231.836 340.089C247.892 341.745 277.517 340.764 291.5 338.113C347.951 327.413 407.096 295.251 464.5 244.038C478.049 231.95 507.285 202.221 509.997 197.773C512.518 193.639 512.524 190.371 510.018 186.261C507.273 181.759 479.845 153.863 466.142 141.635C443.666 121.58 418.265 102.438 395.229 88.197L382.958 80.61L414.861 48.555C432.408 30.925 447.086 15.448 447.477 14.163C449.415 7.80797 445.062 1.21297 438.348 0.329971C435.178 -0.0870286 433.795 0.349967 430.5 2.80997ZM235.5 43.614C206.51 47.703 183.894 54.157 158.558 65.573C113.613 85.823 70.0939 117.067 26.3379 160.5C3.80991 182.862 0.00990898 187.428 0.00390898 192.149C-0.00809102 200.465 39.6039 244.007 68.8229 267.795C82.6279 279.034 98.5789 290.509 102.436 291.976C108.857 294.417 116 289.008 116 281.705C116 276.875 114.444 275.319 96.3209 262.04C81.2569 251.001 63.8139 235.708 49.9589 221.392C37.7429 208.77 24.9999 193.98 24.9999 192.425C24.9999 191.153 48.6629 167.835 61.4999 156.457C94.2889 127.395 127.505 104.534 159.5 89.005C214.47 62.327 260.36 57.546 312.545 73.06C324.084 76.49 326.722 76.307 330.503 71.814C334.083 67.559 333.944 61.79 330.17 58.016C326.511 54.357 310.413 49.488 288.5 45.412C279.88 43.808 242.992 42.557 235.5 43.614ZM382.862 105.75C412.512 124.035 442.251 147.629 470.699 175.436L487.5 191.858L477.5 202.004C436.257 243.849 387.416 279.504 345.346 298.478C294.326 321.49 249.265 325.605 196.705 312.053C186.685 309.469 168.21 303.235 164.27 301.107C163.483 300.682 170.395 293.093 183.433 280.067L203.827 259.691L209.164 263.214C223.053 272.384 234.926 276.084 252.5 276.719C267.289 277.253 274.726 276.064 287.517 271.118C314.194 260.803 335.098 235.072 340.09 206.403C340.783 202.424 341.052 194.774 340.751 187.598C340.124 172.648 336.518 160.509 328.978 147.964L323.939 139.579L345.211 118.289C356.91 106.58 366.976 97 367.578 97C368.181 97 375.058 100.938 382.862 105.75ZM238.5 108.406C221.862 112.208 208.03 119.859 195.945 131.945C183.521 144.368 175.961 158.289 172.301 175.483C170.29 184.932 170.938 205.068 173.407 209.829C176.927 216.618 186.22 217.349 191.044 211.217C192.962 208.778 193.069 207.747 192.466 197.54C191.636 183.512 193.37 174.638 199.216 163C206.566 148.365 219.509 137.229 236.165 131.207C242.866 128.784 244.808 128.552 258.644 128.527C272.013 128.503 274.031 128.281 275.857 126.629C281.345 121.664 280.299 112.771 273.829 109.397C269.344 107.058 247.126 106.435 238.5 108.406ZM314.065 165.326C322.78 183.95 321.543 206.638 310.821 224.792C306.564 232 296 242.564 288.792 246.821C269.713 258.089 247.282 258.847 227.118 248.905L218.736 244.772L263.561 199.939C314.089 149.401 308.429 153.281 314.065 165.326Z" fill="white"/>
</svg>
