<svg width="11" height="11" viewBox="0 0 11 11" fill="none" xmlns="http://www.w3.org/2000/svg">
<path d="M5.57147 7.84093L7.06486 6.34754C7.19174 6.22066 7.19174 6.01492 7.06486 5.88804C6.93798 5.76116 6.73223 5.76116 6.60535 5.88804L5.11197 7.38142L3.61858 5.88804L5.11197 4.39466C5.23885 4.26778 5.23885 4.06204 5.11197 3.93516C4.98509 3.80828 4.77935 3.80828 4.65247 3.93516L3.15908 5.42854L2.64214 4.9116L1.72314 5.8306C0.889483 6.66426 0.786209 7.95155 1.41309 8.89767L0 10.3108L0.689254 11L2.10234 9.58692C3.04846 10.2138 4.33575 10.1105 5.16941 9.27687L6.08841 8.35787L5.57147 7.84093Z" fill="white"/>
<path d="M8.35741 6.08842L9.27641 5.16941C10.1101 4.33576 10.2133 3.04846 9.58646 2.10234L10.9996 0.689255L10.3103 0L8.89721 1.41309C7.95109 0.78621 6.66379 0.889483 5.83014 1.72314L4.91113 2.64214C8.28233 6.01333 4.93794 2.66895 8.35741 6.08842Z" fill="white"/>
</svg>
